# Aspose.3D Wavefront OBJ Exporter
# Copyright 2004-2023 Aspose Pty Ltd.
# File created: 04/27/2023 04:32:34


#
# object OpenSCAD_Model
#

v 50 0.25 6.18811999999999964
v 32.22449999999999904 1.22764999999999992 7.44515999999999952
v 20.5946999999999996 1.86728999999999984 8.76074999999999984
v 50 0.25 6.18811999999999964
v 32.22860000000000012 1.22743000000000004 5.34797999999999972
v 32.22449999999999904 1.22764999999999992 7.44515999999999952
v 50 0.25 6.18811999999999964
v 32.22870000000000344 1.22741999999999996 5.30820999999999988
v 32.22860000000000012 1.22743000000000004 5.34797999999999972
v 32.22870000000000344 1.22741999999999996 5.30820999999999988
v 50 0.25 6.18811999999999964
v 50 0.25 0
v 8.29913999999999952 2.54355000000000016 8.01516999999999946
v 0 3 10.56259999999999976
v 8.59450999999999968 2.52729999999999984 9.81062999999999968
v 50 0.25 0
v 32.21929999999999696 1.22794000000000004 5.30926999999999972
v 32.22870000000000344 1.22741999999999996 5.30820999999999988
v 0 3 0
v 32.21929999999999696 1.22794000000000004 5.30926999999999972
v 50 0.25 0
v 8.29913999999999952 2.54355000000000016 8.01516999999999946
v 0 3 0
v 0 3 10.56259999999999976
v 32.21929999999999696 1.22794000000000004 5.30926999999999972
v 0 3 0
v 8.29913999999999952 2.54355000000000016 8.01516999999999946
v 50 -0.25 6.18811999999999964
v 50 0.25 0
v 50 0.25 6.18811999999999964
v 50 0.25 0
v 50 -0.25 6.18811999999999964
v 50 -0.25 0
v 0 -3 0
v 0 3 10.56259999999999976
v 0 3 0
v 0 3 10.56259999999999976
v 0 -3 0
v 0 -3 10.56259999999999976
v 0 -3 0
v 50 0.25 0
v 50 -0.25 0
v 50 0.25 0
v 0 -3 0
v 0 3 0
v 0 -3 10.56259999999999976
v 8.29913999999999952 -2.54355000000000016 8.01516999999999946
v 8.59450999999999968 -2.52729999999999984 9.81062999999999968
v 50 -0.25 0
v 32.21929999999999696 -1.22794000000000004 5.30926999999999972
v 0 -3 0
v 8.29913999999999952 -2.54355000000000016 8.01516999999999946
v 0 -3 0
v 32.21929999999999696 -1.22794000000000004 5.30926999999999972
v 0 -3 0
v 8.29913999999999952 -2.54355000000000016 8.01516999999999946
v 0 -3 10.56259999999999976
v 32.22449999999999904 -1.22764999999999992 7.44515999999999952
v 50 -0.25 6.18811999999999964
v 20.5946999999999996 -1.86728999999999984 8.76074999999999984
v 32.22860000000000012 -1.22743000000000004 5.34797999999999972
v 50 -0.25 6.18811999999999964
v 32.22449999999999904 -1.22764999999999992 7.44515999999999952
v 32.22870000000000344 -1.22741999999999996 5.30820999999999988
v 50 -0.25 6.18811999999999964
v 32.22860000000000012 -1.22743000000000004 5.34797999999999972
v 32.21929999999999696 -1.22794000000000004 5.30926999999999972
v 50 -0.25 0
v 32.22870000000000344 -1.22741999999999996 5.30820999999999988
v 32.22870000000000344 -1.22741999999999996 5.30820999999999988
v 50 -0.25 0
v 50 -0.25 6.18811999999999964
v 8.42641000000000064 1.67957 9.82534000000000064
v 0 3 10.56259999999999976
v 8.42641000000000064 -1.67957 9.82534000000000064
v 0 3 10.56259999999999976
v 8.42641000000000064 1.67957 9.82534000000000064
v 8.59450999999999968 2.52729999999999984 9.81062999999999968
v 20.5946999999999996 1.86728999999999984 8.76074999999999984
v 50 -0.25 6.18811999999999964
v 50 0.25 6.18811999999999964
v 20.5946999999999996 1.86728999999999984 8.76074999999999984
v 20.5946999999999996 -1.86728999999999984 8.76074999999999984
v 50 -0.25 6.18811999999999964
v 8.45504999999999992 1.68002000000000008 9.82282999999999968
v 20.5946999999999996 -1.86728999999999984 8.76074999999999984
v 20.5946999999999996 1.86728999999999984 8.76074999999999984
v 8.45504999999999992 1.68002000000000008 9.82282999999999968
v 8.45504999999999992 -1.68002000000000008 9.82282999999999968
v 20.5946999999999996 -1.86728999999999984 8.76074999999999984
v 8.42641000000000064 1.67957 9.82534000000000064
v 8.45504999999999992 -1.68002000000000008 9.82282999999999968
v 8.45504999999999992 1.68002000000000008 9.82282999999999968
v 8.45504999999999992 -1.68002000000000008 9.82282999999999968
v 8.42641000000000064 1.67957 9.82534000000000064
v 8.42641000000000064 -1.67957 9.82534000000000064
v 0 -3 10.56259999999999976
v 8.42641000000000064 -1.67957 9.82534000000000064
v 0 3 10.56259999999999976
v 8.42641000000000064 -1.67957 9.82534000000000064
v 0 -3 10.56259999999999976
v 8.59450999999999968 -2.52729999999999984 9.81062999999999968
v 32.21929999999999696 1.22794000000000004 5.30926999999999972
v 20.24899999999999876 46.99210000000000064 23.08050000000000068
v 32.22870000000000344 1.22741999999999996 5.30820999999999988
v 20.24899999999999876 46.99210000000000064 23.08050000000000068
v 32.21929999999999696 1.22794000000000004 5.30926999999999972
v 19.75090000000000144 46.97720000000000336 23.12150000000000106
v 8.59450999999999968 2.52729999999999984 9.81062999999999968
v 19.75090000000000144 46.97720000000000336 23.12150000000000106
v 8.29913999999999952 2.54355000000000016 8.01516999999999946
v 19.75090000000000144 46.97720000000000336 23.12150000000000106
v 8.59450999999999968 2.52729999999999984 9.81062999999999968
v 19.9253 46.29569999999999652 24.99370000000000048
v 19.9253 46.29569999999999652 24.99370000000000048
v 8.59450999999999968 2.52729999999999984 9.81062999999999968
v 8.42641000000000064 1.67957 9.82534000000000064
v 32.21929999999999696 1.22794000000000004 5.30926999999999972
v 8.29913999999999952 2.54355000000000016 8.01516999999999946
v 19.75090000000000144 46.97720000000000336 23.12150000000000106
v 32.22860000000000012 1.22743000000000004 5.34797999999999972
v 20.24899999999999876 46.99210000000000064 23.08050000000000068
v 20.42340000000000088 46.31060000000000088 24.95279999999999984
v 20.24899999999999876 46.99210000000000064 23.08050000000000068
v 32.22860000000000012 1.22743000000000004 5.34797999999999972
v 32.22870000000000344 1.22741999999999996 5.30820999999999988
v 19.9253 46.29569999999999652 24.99370000000000048
v 8.45504999999999992 1.68002000000000008 9.82282999999999968
v 20.42340000000000088 46.31060000000000088 24.95279999999999984
v 8.45504999999999992 1.68002000000000008 9.82282999999999968
v 19.9253 46.29569999999999652 24.99370000000000048
v 8.42641000000000064 1.67957 9.82534000000000064
v 20.24899999999999876 46.99210000000000064 23.08050000000000068
v 19.9253 46.29569999999999652 24.99370000000000048
v 20.42340000000000088 46.31060000000000088 24.95279999999999984
v 19.9253 46.29569999999999652 24.99370000000000048
v 20.24899999999999876 46.99210000000000064 23.08050000000000068
v 19.75090000000000144 46.97720000000000336 23.12150000000000106
v 32.22860000000000012 1.22743000000000004 5.34797999999999972
v 20.42340000000000088 46.31060000000000088 24.95279999999999984
v 32.22449999999999904 1.22764999999999992 7.44515999999999952
v 20.42340000000000088 46.31060000000000088 24.95279999999999984
v 20.5946999999999996 1.86728999999999984 8.76074999999999984
v 32.22449999999999904 1.22764999999999992 7.44515999999999952
v 20.5946999999999996 1.86728999999999984 8.76074999999999984
v 20.42340000000000088 46.31060000000000088 24.95279999999999984
v 8.45504999999999992 1.68002000000000008 9.82282999999999968
v 8.59450999999999968 -2.52729999999999984 9.81062999999999968
v 19.9253 -46.29569999999999652 24.99370000000000048
v 8.42641000000000064 -1.67957 9.82534000000000064
v 19.75090000000000144 -46.97720000000000336 23.12150000000000106
v 8.59450999999999968 -2.52729999999999984 9.81062999999999968
v 8.29913999999999952 -2.54355000000000016 8.01516999999999946
v 8.59450999999999968 -2.52729999999999984 9.81062999999999968
v 19.75090000000000144 -46.97720000000000336 23.12150000000000106
v 19.9253 -46.29569999999999652 24.99370000000000048
v 20.24899999999999876 -46.99210000000000064 23.08050000000000068
v 19.9253 -46.29569999999999652 24.99370000000000048
v 19.75090000000000144 -46.97720000000000336 23.12150000000000106
v 19.9253 -46.29569999999999652 24.99370000000000048
v 20.24899999999999876 -46.99210000000000064 23.08050000000000068
v 20.42340000000000088 -46.31060000000000088 24.95279999999999984
v 20.24899999999999876 -46.99210000000000064 23.08050000000000068
v 32.21929999999999696 -1.22794000000000004 5.30926999999999972
v 32.22870000000000344 -1.22741999999999996 5.30820999999999988
v 32.21929999999999696 -1.22794000000000004 5.30926999999999972
v 20.24899999999999876 -46.99210000000000064 23.08050000000000068
v 19.75090000000000144 -46.97720000000000336 23.12150000000000106
v 19.75090000000000144 -46.97720000000000336 23.12150000000000106
v 8.29913999999999952 -2.54355000000000016 8.01516999999999946
v 32.21929999999999696 -1.22794000000000004 5.30926999999999972
v 20.24899999999999876 -46.99210000000000064 23.08050000000000068
v 32.22860000000000012 -1.22743000000000004 5.34797999999999972
v 20.42340000000000088 -46.31060000000000088 24.95279999999999984
v 32.22860000000000012 -1.22743000000000004 5.34797999999999972
v 20.24899999999999876 -46.99210000000000064 23.08050000000000068
v 32.22870000000000344 -1.22741999999999996 5.30820999999999988
v 20.5946999999999996 -1.86728999999999984 8.76074999999999984
v 20.42340000000000088 -46.31060000000000088 24.95279999999999984
v 32.22449999999999904 -1.22764999999999992 7.44515999999999952
v 20.42340000000000088 -46.31060000000000088 24.95279999999999984
v 20.5946999999999996 -1.86728999999999984 8.76074999999999984
v 8.45504999999999992 -1.68002000000000008 9.82282999999999968
v 32.22449999999999904 -1.22764999999999992 7.44515999999999952
v 20.42340000000000088 -46.31060000000000088 24.95279999999999984
v 32.22860000000000012 -1.22743000000000004 5.34797999999999972
v 8.45504999999999992 -1.68002000000000008 9.82282999999999968
v 19.9253 -46.29569999999999652 24.99370000000000048
v 20.42340000000000088 -46.31060000000000088 24.95279999999999984
v 19.9253 -46.29569999999999652 24.99370000000000048
v 8.45504999999999992 -1.68002000000000008 9.82282999999999968
v 8.42641000000000064 -1.67957 9.82534000000000064
# 192 vertices

vn 0.054917 0.998491 2.58519E-07
vn 0.054917 0.998491 -3.63199E-08
vn 0.0549171 0.998491 -2.39447E-06
vn 0.054917 0.998491 0
vn 0.054917 0.998491 -3.76849E-08
vn 0.0549374 0.99849 6.86521E-05
vn 0.054917 0.998491 -6.27737E-09
vn 0.054917 0.998491 0
vn 0.054917 0.998491 -1.4104E-10
vn 1 0 0
vn 1 0 0
vn -1 0 0
vn -1 0 0
vn 0 0 -1
vn 0 0 -1
vn 0.054917 -0.998491 -3.76849E-08
vn 0.054917 -0.998491 -6.27737E-09
vn 0.054917 -0.998491 -1.4104E-10
vn 0.054917 -0.998491 0
vn 0.054917 -0.998491 2.58519E-07
vn 0.054917 -0.998491 -3.63199E-08
vn 0.0549171 -0.998491 -2.39447E-06
vn 0.0549374 -0.99849 6.86521E-05
vn 0.054917 -0.998491 0
vn 0.0871557 0 0.996195
vn 0.0871557 -2.94394E-07 0.996195
vn 0.0871557 0 0.996195
vn 0.0871557 0 0.996195
vn 0.08715580000000001 0 0.996195
vn 0.08715580000000001 0 0.996195
vn 0.0871649 0 0.996194
vn 0.0871649 0 0.996194
vn 0.0871557 0 0.996195
vn 0.0871557 2.94394E-07 0.996195
vn -0.0871422 0.34072200000000004 -0.936117
vn -0.0871545 0.340719 -0.936117
vn -0.967578 0.194659 0.160935
vn -0.967578 0.194658 0.160936
vn -0.967578 0.194658 0.160936
vn -0.0871557 0.340719 -0.936117
vn 0.967578 0.252564 0.00184093
vn 0.967577 0.252568 0.00182918
vn 0.0871538 -0.34071800000000004 0.936117
vn 0.0871633 -0.34072000000000004 0.936116
vn 1.54367E-07 0.939693 0.342019
vn 8.78073E-06 0.939693 0.34202
vn 0.967578 0.252564 0.00184053
vn 0.0871557 -0.340719 0.936117
vn 0.08715580000000001 -0.340719 0.936117
vn -0.967578 -0.194658 0.160936
vn -0.967578 -0.194659 0.160935
vn -0.967578 -0.194658 0.160936
vn 8.78073E-06 -0.939693 0.34202
vn 1.54367E-07 -0.939693 0.342019
vn -0.0871422 -0.34072200000000004 -0.936117
vn -0.0871545 -0.340719 -0.936117
vn -0.0871557 -0.340719 -0.936117
vn 0.967578 -0.252564 0.00184093
vn 0.967577 -0.252568 0.00182918
vn 0.0871557 0.340719 0.936117
vn 0.08715580000000001 0.340719 0.936117
vn 0.967578 -0.252564 0.00184053
vn 0.0871538 0.34071800000000004 0.936117
vn 0.0871633 0.34072000000000004 0.936116
# 64 vertex normals

g OpenSCAD_Model
s 1
f 1//1 2//1 3//1
f 4//2 5//2 6//2
f 7//3 8//3 9//3
f 10//4 11//4 12//4
f 13//5 14//5 15//5
f 16//6 17//6 18//6
f 19//7 20//7 21//7
f 22//8 23//8 24//8
f 25//9 26//9 27//9
f 28//10 29//10 30//10
f 31//11 32//11 33//11
f 34//12 35//12 36//12
f 37//13 38//13 39//13
f 40//14 41//14 42//14
f 43//15 44//15 45//15
f 46//16 47//16 48//16
f 49//17 50//17 51//17
f 52//18 53//18 54//18
f 55//19 56//19 57//19
f 58//20 59//20 60//20
f 61//21 62//21 63//21
f 64//22 65//22 66//22
f 67//23 68//23 69//23
f 70//24 71//24 72//24
f 73//25 74//25 75//25
f 76//26 77//26 78//26
f 79//27 80//27 81//27
f 82//28 83//28 84//28
f 85//29 86//29 87//29
f 88//30 89//30 90//30
f 91//31 92//31 93//31
f 94//32 95//32 96//32
f 97//33 98//33 99//33
f 100//34 101//34 102//34
f 103//35 104//35 105//35
f 106//36 107//36 108//36
f 109//37 110//37 111//37
f 112//38 113//38 114//38
f 115//39 116//39 117//39
f 118//40 119//40 120//40
f 121//41 122//41 123//41
f 124//42 125//42 126//42
f 127//43 128//43 129//43
f 130//44 131//44 132//44
f 133//45 134//45 135//45
f 136//46 137//46 138//46
f 139//47 140//47 141//47
f 142//48 143//48 144//48
f 145//49 146//49 147//49
f 148//50 149//50 150//50
f 151//51 152//51 153//51
f 154//52 155//52 156//52
f 157//53 158//53 159//53
f 160//54 161//54 162//54
f 163//55 164//55 165//55
f 166//56 167//56 168//56
f 169//57 170//57 171//57
f 172//58 173//58 174//58
f 175//59 176//59 177//59
f 178//60 179//60 180//60
f 181//61 182//61 183//61
f 184//62 185//62 186//62
f 187//63 188//63 189//63
f 190//64 191//64 192//64
#64 polygons

